<svg width="76" height="76" viewBox="0 0 76 76" fill="none" xmlns="http://www.w3.org/2000/svg">
<path d="M74.8867 73.7734H49.4992V63.2289C50.1361 63.4072 50.8064 63.5045 51.4995 63.5045H68.5677C72.6658 63.5045 75.9998 60.1705 75.9998 56.0723C75.9998 55.4574 75.5014 54.959 74.8866 54.959H71.8151L63.0699 38.7566C63.954 37.9391 64.5089 36.7709 64.5089 35.4752C64.5089 33.3934 63.0776 31.6392 61.1469 31.1434V13.2181H63.9111V13.84C63.9111 15.2794 66.1377 15.2794 66.1377 13.84V13.2181H71.6297C75.4622 13.2181 75.4679 7.24687 71.6297 7.24687H66.1377V6.1275C66.1377 4.6881 63.9111 4.6881 63.9111 6.1275V7.24702H61.1469V6.1275C61.1469 4.6881 58.9203 4.6881 58.9203 6.1275V7.24702H49.7231V4.91076C49.7231 2.7213 47.9419 0.940055 45.7524 0.940055C44.8449 0.940055 44.008 1.24673 43.3386 1.76106C42.6252 0.699883 41.413 0 40.0403 0C38.6675 0 37.4554 0.699883 36.742 1.76121C36.0725 1.24687 35.2356 0.940203 34.3281 0.940203C32.8354 0.940203 31.5329 1.76848 30.8548 2.98923C30.217 2.55209 29.446 2.29573 28.6159 2.29573C26.4265 2.29573 24.6452 4.07698 24.6452 6.26644V7.24687H17.0797V6.1275C17.0797 4.6881 14.8531 4.6881 14.8531 6.1275V7.24702H12.0889V6.1275C12.0889 4.6881 9.86234 4.6881 9.86234 6.1275V7.24702H4.3703C0.537789 7.24702 0.532148 13.2182 4.3703 13.2182H9.86234V13.8402C9.86234 15.2796 12.0889 15.2796 12.0889 13.8402V13.2182H14.8531V31.1434C12.9222 31.6392 11.4911 33.3932 11.4911 35.4752C11.4911 36.7709 12.046 37.9391 12.9302 38.7567L4.18475 54.959H1.11328C0.498453 54.959 0 55.4574 0 56.0723C0 60.1703 3.33405 63.5044 7.43212 63.5044H24.5004C25.1934 63.5044 25.8638 63.407 26.5007 63.2287V73.7734H1.11328C0.498453 73.7734 0 74.2719 0 74.8867C0 75.5015 0.498453 76 1.11328 76H74.8867C75.5015 76 76 75.5015 76 74.8867C76 74.2719 75.5015 73.7734 74.8867 73.7734ZM69.285 54.959H67.0464C66.4316 54.959 65.9331 55.4574 65.9331 56.0723C65.9331 56.6871 66.4316 57.1855 67.0464 57.1855H71.1483C71.1495 57.1855 71.1507 57.1858 71.152 57.1858C71.1534 57.1858 71.1547 57.1855 71.156 57.1855H73.6535C73.1424 59.523 71.0561 61.2778 68.5677 61.2778H51.4995C49.0111 61.2778 46.9248 59.5228 46.4137 57.1854H48.9105C48.9121 57.1854 48.9136 57.1857 48.9152 57.1857C48.9167 57.1857 48.918 57.1854 48.9195 57.1854H61.12V54.9588H50.7821L58.956 39.8151C59.6743 39.991 60.3925 39.991 61.111 39.8151L69.285 54.959ZM28.7274 39.9601H47.2727V45.0947H28.7274V39.9601ZM62.2824 35.4751C62.2824 36.7132 61.2737 37.7205 60.0338 37.7205C58.7939 37.7205 57.7849 36.7132 57.7849 35.4751C57.7849 34.237 58.7937 33.2297 60.0338 33.2297C61.2738 33.2297 62.2824 34.237 62.2824 35.4751ZM58.9205 31.1432C56.9896 31.639 55.5584 33.3931 55.5584 35.4751C55.5584 36.7708 56.1132 37.939 56.9975 38.7566L49.4993 52.6484V38.8468C49.4993 38.232 49.0009 37.7336 48.386 37.7336H47.4097C47.314 35.5285 48.0227 33.3894 49.6008 31.8131C53.1286 28.2897 56.089 24.7364 56.089 19.4401V14.954C56.089 14.3318 55.9446 13.7428 55.688 13.2182H58.9206V31.1432H58.9205ZM71.6297 9.47358C72.6109 9.47358 72.6109 10.9916 71.6297 10.9916H66.1377V9.47358H71.6297ZM63.9111 9.47358V10.9916H61.1469V9.47358H63.9111ZM58.9205 9.47358V10.9916L49.7233 10.9869V9.47358H58.9205ZM45.7524 3.16662C46.7142 3.16662 47.4966 3.94903 47.4966 4.91076V10.9867H44.011V4.85509C44.0408 3.9192 44.8096 3.16662 45.7524 3.16662ZM40.0403 2.22656C41.002 2.22656 41.7844 3.00779 41.7844 3.96788L41.7816 11.032C40.8586 11.2283 40.1641 12.0485 40.1641 13.0285C40.1641 14.0904 40.4482 15.0867 40.9423 15.9483C39.8001 16.6379 38.2961 15.792 38.2961 14.4586V3.96788C38.2961 3.00779 39.0785 2.22656 40.0403 2.22656ZM34.3281 3.16662C35.2711 3.16662 36.0397 3.9192 36.0694 4.85495V13.7219C36.0396 14.6576 35.271 15.4103 34.3281 15.4103C33.3664 15.4103 32.584 14.6279 32.584 13.6662V4.91076C32.584 3.94903 33.3664 3.16662 34.3281 3.16662ZM26.8718 6.26644C26.8718 5.30471 27.6542 4.5223 28.6159 4.5223C29.559 4.5223 30.3276 5.27488 30.3572 6.21077V12.3665C30.3274 13.3022 29.5588 14.055 28.6159 14.055C27.6542 14.055 26.8718 13.2725 26.8718 12.3108V6.26644ZM24.6452 9.47358V10.9916H17.0797V9.47358H24.6452ZM4.3703 10.9915C3.38912 10.9915 3.38912 9.47343 4.3703 9.47343H9.86234V10.9915H4.3703ZM12.0889 10.9915V9.47358H14.8531V10.9916H12.0889V10.9915ZM24.6452 13.2181V18.4186C24.6452 19.0334 25.1437 19.5319 25.7585 19.5319C26.3733 19.5319 26.8718 19.0334 26.8718 18.4186V15.8767C27.3986 16.1355 27.9906 16.2814 28.6159 16.2814C29.446 16.2814 30.217 16.025 30.8548 15.5879C31.5329 16.8086 32.8353 17.6369 34.3281 17.6369C35.2668 17.6369 36.1298 17.3089 36.8103 16.7622C37.5312 17.7686 38.7098 18.4263 40.0403 18.4263C40.9002 18.4263 41.7264 18.1481 42.4044 17.6458C43.4107 18.4432 44.6815 18.9212 46.0627 18.9212H47.8441V18.9457C42.9862 19.4992 39.2003 23.6307 39.2003 28.6288C39.2003 29.2437 39.6987 29.7421 40.3135 29.7421C40.9284 29.7421 41.4268 29.2437 41.4268 28.6288C41.4268 24.4824 44.805 21.1091 48.9574 21.1091C49.5722 21.1091 50.0706 20.6107 50.0706 19.9959V17.8079C50.0706 17.1931 49.5722 16.6946 48.9574 16.6946H46.0627C44.0999 16.6946 42.492 15.1494 42.3952 13.2133C45.6674 13.2133 48.9393 13.2181 52.2113 13.2181C53.1296 13.2669 53.8623 14.0256 53.8623 14.9539V19.44C53.8623 24.1303 51.1225 27.146 48.0273 30.2376C46.0076 32.2546 45.1563 34.929 45.183 37.7336H30.7292C30.8112 35.2517 29.9819 32.9493 28.6192 30.8977C27.4759 29.1188 26.8716 27.0615 26.8716 24.9474C26.8716 24.3326 26.3732 23.8342 25.7584 23.8342C25.1435 23.8342 24.6451 24.3326 24.6451 24.9474C24.6451 27.4923 25.3733 29.9688 26.7511 32.1093C27.8585 33.823 28.5874 35.6664 28.5027 37.7336H27.614C26.9991 37.7336 26.5007 38.232 26.5007 38.8468V52.6484L19.0025 38.7566C19.8868 37.9391 20.4416 36.7708 20.4416 35.4751C20.4416 33.3932 19.0104 31.639 17.0795 31.1432V13.2181H24.6452ZM15.9664 33.2297C17.2064 33.2297 18.2152 34.237 18.2152 35.4751C18.2152 36.7132 17.2064 37.7205 15.9664 37.7205C14.7263 37.7205 13.7177 36.7132 13.7177 35.4751C13.7177 34.237 14.7263 33.2297 15.9664 33.2297ZM14.8889 39.8152C15.6072 39.991 16.3255 39.991 17.0437 39.8152L25.2178 54.9591H6.71502L14.8889 39.8152ZM7.43212 61.278C4.94371 61.278 2.85742 59.523 2.34635 57.1857H4.84426C4.84545 57.1857 4.84663 57.1858 4.84782 57.1858C4.84886 57.1858 4.85005 57.1857 4.85109 57.1857H27.0814C27.0824 57.1857 27.0836 57.1858 27.0846 57.1858C27.0858 57.1858 27.087 57.1857 27.0882 57.1857H29.5861C29.075 59.5231 26.9888 61.278 24.5004 61.278H7.43212ZM28.7274 73.7734V62.1805C30.6623 60.8374 31.9326 58.6009 31.9326 56.0723C31.9326 55.4574 31.4342 54.959 30.8193 54.959H28.7274V47.3211H47.2727V54.959H45.1808C44.566 54.959 44.0675 55.4574 44.0675 56.0723C44.0675 58.6009 45.3379 60.8374 47.2727 62.1805V73.7734H28.7274Z" fill="#D4A94F"/>
</svg>
