<svg width="77" height="77" viewBox="0 0 77 77" fill="none" xmlns="http://www.w3.org/2000/svg">
<path d="M64.3304 58.028C66.2451 56.4012 67.4631 53.9782 67.4631 51.275V48.0043C67.4631 43.1177 63.4876 39.1424 58.6012 39.1424C53.7148 39.1424 49.7395 43.1177 49.7395 48.0043V51.275C49.7395 53.9961 50.9733 56.4335 52.9097 58.0604C49.5632 59.1677 46.5744 61.2281 44.3339 64.0353C44.0521 63.89 43.7659 63.7518 43.4725 63.6272C44.8591 62.3097 45.7264 60.4504 45.7264 58.3912C45.7264 54.4065 42.4847 51.1647 38.5 51.1647C34.5153 51.1647 31.2736 54.4065 31.2736 58.3912C31.2736 60.4407 32.1326 62.2921 33.508 63.6086C33.2148 63.7316 32.9286 63.8678 32.647 64.0114C30.3981 61.2032 27.399 59.1449 24.0429 58.0447C25.9688 56.4178 27.195 53.9874 27.195 51.2749V48.0041C27.195 43.1176 23.2195 39.1422 18.3331 39.1422C13.4467 39.1422 9.47136 43.1176 9.47136 48.0041V51.2749C9.47136 53.9867 10.697 56.4164 12.6219 58.0433C5.30112 60.4493 0 67.3491 0 75.4646C0 76.2943 0.672726 76.9672 1.50263 76.9672C2.33253 76.9672 3.00525 76.2943 3.00525 75.4646C3.00525 67.0128 9.88142 60.1366 18.3332 60.1366C22.922 60.1366 27.2383 62.1883 30.1388 65.6876C27.3735 68.0469 25.615 71.5533 25.615 75.4646C25.615 76.2943 26.2877 76.9672 27.1176 76.9672C27.9475 76.9672 28.6202 76.2943 28.6202 75.4646C28.6202 70.0349 33.0375 65.6176 38.4672 65.6176C43.897 65.6176 48.3143 70.0349 48.3143 75.4646C48.3143 76.2943 48.987 76.9672 49.8169 76.9672C50.6468 76.9672 51.3195 76.2943 51.3195 75.4646C51.3195 71.5714 49.5772 68.0798 46.8342 65.721C49.7348 62.2015 54.0636 60.1366 58.6669 60.1366C67.1187 60.1366 73.9947 67.0128 73.9947 75.4646C73.9947 76.2943 74.6675 76.9672 75.4974 76.9672C76.3273 76.9672 77 76.2943 77 75.4646C77 67.3315 71.6759 60.4196 64.3304 58.028ZM12.4766 51.275V48.0043C12.4766 44.775 15.1038 42.1476 18.3332 42.1476C21.5625 42.1476 24.1897 44.7748 24.1897 48.0043V51.275C24.1897 54.5042 21.5625 57.1315 18.3332 57.1315C15.104 57.1314 12.4766 54.5042 12.4766 51.275ZM38.5 54.17C40.8276 54.17 42.7212 56.0636 42.7212 58.3912C42.7212 60.7187 40.8276 62.6123 38.5 62.6123C36.1724 62.6123 34.2788 60.7187 34.2788 58.3912C34.2788 56.0636 36.1726 54.17 38.5 54.17ZM52.7447 48.0043C52.7447 44.775 55.3719 42.1476 58.6014 42.1476C61.8307 42.1476 64.4579 44.7748 64.4579 48.0043V51.275C64.4579 54.5042 61.8307 57.1315 58.6012 57.1315C55.3719 57.1315 52.7447 54.5043 52.7447 51.275V48.0043Z" fill="#D4A94F"/>
<path d="M19.509 31.2373C21.837 31.2373 24.0256 30.3308 25.6716 28.6847C27.3177 27.0387 28.2241 24.8499 28.2241 22.5221C28.2241 22.2962 28.1733 22.0735 28.0754 21.8701L21.9005 9.04848H33.6587V30.9868H33.3586C30.0028 30.9868 27.2725 33.7171 27.2725 37.0731V38.5C27.2725 39.3297 27.9452 40.0026 28.7751 40.0026H48.159C48.9889 40.0026 49.6616 39.3297 49.6616 38.5V37.0731C49.6616 33.7171 46.9314 30.9868 43.5756 30.9868H43.2755V25.7085C43.2755 24.8788 42.6028 24.2059 41.7729 24.2059C40.9429 24.2059 40.2702 24.8788 40.2702 25.7085V30.9868H36.6639V4.84112C36.6639 3.84683 37.4728 3.03797 38.4671 3.03797C39.4614 3.03797 40.2702 3.84683 40.2702 4.84112V12.1849C40.2702 13.0147 40.9429 13.6875 41.7729 13.6875C42.6028 13.6875 43.2755 13.0147 43.2755 12.1849V9.04848H55.0337L48.8588 21.8701C48.7608 22.0735 48.71 22.2962 48.71 22.5221C48.71 24.8499 49.6164 27.0387 51.2625 28.6847C52.9087 30.3308 55.0972 31.2373 57.4251 31.2373C62.2307 31.2373 66.1403 27.3276 66.1403 22.5221C66.1403 22.277 66.0817 22.0457 65.9778 21.8415C65.7225 21.3119 61.7479 13.0588 59.8167 9.04848H62.2588C63.0887 9.04848 63.7614 8.3756 63.7614 7.54585C63.7614 6.7161 63.0887 6.04322 62.2588 6.04322H43.2755V4.84112C43.2755 2.18974 41.1185 0.0327148 38.4671 0.0327148C35.8157 0.0327148 33.6587 2.18974 33.6587 4.84112V6.04322H14.6755C13.8456 6.04322 13.1729 6.7161 13.1729 7.54585C13.1729 8.3756 13.8456 9.04848 14.6755 9.04848H17.1176C15.1867 13.0578 11.2124 21.3102 10.9564 21.8418C10.8525 22.046 10.7939 22.2771 10.7939 22.5221C10.7938 27.3276 14.7035 31.2373 19.509 31.2373ZM43.5756 33.9921C45.249 33.9921 46.6152 35.3333 46.6555 36.9973H30.2787C30.3189 35.3333 31.6851 33.9921 33.3586 33.9921H43.5756ZM57.4251 11.009L62.2461 21.0194H52.6039L57.4251 11.009ZM57.4251 28.2321C55.8999 28.2321 54.466 27.6381 53.3876 26.5596C52.6732 25.8453 52.1728 24.9744 51.9154 24.0247H62.933C62.2715 26.4463 60.0535 28.2321 57.4251 28.2321ZM19.509 28.2321C16.8805 28.2321 14.6626 26.4463 14.0012 24.0247H25.0187C24.7613 24.9744 24.2609 25.8453 23.5466 26.5596C22.4682 27.6381 21.0343 28.2321 19.509 28.2321ZM14.688 21.0194L19.509 11.009L24.3302 21.0194H14.688Z" fill="#D4A94F"/>
<path d="M41.7731 17.4436C41.3779 17.4436 40.9903 17.6042 40.7108 17.8839C40.4313 18.1634 40.2705 18.551 40.2705 18.9462C40.2705 19.3429 40.4313 19.7291 40.7108 20.0084C40.9903 20.2894 41.3779 20.4489 41.7731 20.4489C42.1683 20.4489 42.556 20.2894 42.8355 20.0084C43.115 19.7291 43.2758 19.3414 43.2758 18.9462C43.2758 18.551 43.115 18.1634 42.8355 17.8839C42.556 17.6044 42.1683 17.4436 41.7731 17.4436Z" fill="#D4A94F"/>
</svg>
