<svg width="72" height="73" viewBox="0 0 72 73" fill="none" xmlns="http://www.w3.org/2000/svg">
<path d="M70.9006 28.1744L55 21.2684V10.0312C54.9977 9.71229 54.8744 9.40645 54.6556 9.17703L46.3431 0.755156C46.1167 0.533546 45.8148 0.408625 45.5 0.40625H3.9375C2.99353 0.409106 2.08903 0.790296 1.42155 1.46657C0.754058 2.14284 0.377819 3.05924 0.375 4.01562V68.9844C0.377819 69.9408 0.754058 70.8572 1.42155 71.5334C2.08903 72.2097 2.99353 72.5909 3.9375 72.5938H51.4375C52.3815 72.5909 53.286 72.2097 53.9535 71.5334C54.6209 70.8572 54.9972 69.9408 55 68.9844V65.9886L61.1869 61.525C64.4118 59.1824 67.0404 56.096 68.8554 52.5207C70.6704 48.9455 71.6197 44.984 71.625 40.9636V29.2812C71.6248 29.0451 71.556 28.8142 71.4272 28.6174C71.2984 28.4205 71.1153 28.2665 70.9006 28.1744ZM46.6875 4.50891L50.9506 8.82812H46.6875V4.50891ZM52.625 68.9844C52.625 69.3035 52.4999 69.6095 52.2772 69.8351C52.0545 70.0607 51.7524 70.1875 51.4375 70.1875H3.9375C3.62256 70.1875 3.32051 70.0607 3.09781 69.8351C2.87511 69.6095 2.75 69.3035 2.75 68.9844V4.01562C2.75 3.69654 2.87511 3.39052 3.09781 3.16489C3.32051 2.93926 3.62256 2.8125 3.9375 2.8125H44.3125V10.0312C44.3125 10.3503 44.4376 10.6564 44.6603 10.882C44.883 11.1076 45.1851 11.2344 45.5 11.2344H52.625V21.2684L45.0013 24.577L39.8119 19.3194C40.3821 18.7822 40.7194 18.0383 40.75 17.25C40.75 15.8303 39.5863 14.9039 38.66 14.158C38.2421 13.8715 37.8731 13.518 37.5675 13.1113C37.4747 12.5731 37.4828 12.0221 37.5913 11.487C37.7219 10.2478 37.8762 8.85219 36.9262 7.88969C35.9762 6.92719 34.5869 7.08359 33.3756 7.21594C32.8515 7.32589 32.3115 7.33406 31.7844 7.24C31.3759 6.93451 31.0225 6.56009 30.7394 6.13313C30.0031 5.18266 29.0888 4.01562 27.6875 4.01562C26.2862 4.01562 25.3719 5.19469 24.6356 6.13313C24.3529 6.5565 24.0039 6.93036 23.6025 7.24C23.0714 7.33399 22.5275 7.32583 21.9994 7.21594C20.7762 7.08359 19.3987 6.92719 18.4487 7.88969C17.4987 8.85219 17.6531 10.2478 17.7838 11.487C17.8923 12.0181 17.9003 12.5651 17.8075 13.0992C17.506 13.513 17.1364 13.8712 16.715 14.158C15.7769 14.9039 14.625 15.8303 14.625 17.25C14.6556 18.0383 14.9929 18.7822 15.5631 19.3194L8.36687 26.6103C8.20961 26.7716 8.10053 26.9747 8.0522 27.196C8.00388 27.4174 8.01828 27.6481 8.09375 27.8616C8.1663 28.0753 8.29762 28.2636 8.47223 28.4043C8.64684 28.5449 8.85749 28.6322 9.07938 28.6556L15.6937 29.4016L16.43 36.103C16.4532 36.3278 16.5392 36.5412 16.6781 36.7181C16.8169 36.895 17.0028 37.0281 17.2138 37.1016C17.3392 37.1487 17.4718 37.1732 17.6056 37.1738C17.9211 37.1747 18.2241 37.0493 18.4487 36.8248L25.645 29.5339C25.8977 29.8321 26.2111 30.0715 26.5636 30.2356C26.9162 30.3997 27.2995 30.4846 27.6875 30.4846C28.0755 30.4846 28.4588 30.3997 28.8114 30.2356C29.1639 30.0715 29.4773 29.8321 29.73 29.5339L36 35.8744V40.9636C36.0037 41.8841 36.0553 42.8037 36.1544 43.7188H7.5V46.125H36.5344C36.7125 46.9431 36.9144 47.7372 37.1519 48.5312H7.5V50.9375H38.0425C38.3937 51.7594 38.786 52.5625 39.2181 53.3438H7.5V55.75H40.7381C41.3343 56.5947 41.9848 57.3985 42.6856 58.1562H7.5V60.5625H45.2031C45.6069 60.8873 46.0225 61.2122 46.4381 61.525L52.625 65.9886V68.9844ZM18.4487 26.6103C19.3987 27.5728 20.7762 27.4164 21.9994 27.2841C22.5242 27.1802 23.063 27.1721 23.5906 27.26C23.7839 27.3689 23.9536 27.5162 24.0894 27.6931L18.52 33.3478L17.95 28.1744C17.9195 27.9042 17.7996 27.6525 17.6099 27.4602C17.4201 27.268 17.1716 27.1465 16.905 27.1156L11.7987 26.5381L17.38 20.8955C17.5537 21.0292 17.6991 21.197 17.8075 21.3888C17.9003 21.9269 17.8922 22.4779 17.7838 23.013C17.6531 24.2522 17.4987 25.6478 18.4487 26.6103ZM23.0919 24.7816C22.6391 24.7937 22.1872 24.8299 21.7381 24.8898C21.2093 24.9937 20.6666 25.0019 20.135 24.9139C20.0371 24.3726 20.0412 23.8174 20.1469 23.2777C20.3333 22.346 20.2843 21.3817 20.0044 20.4744C19.5775 19.6556 18.9523 18.9601 18.1875 18.4531C17.7956 18.1403 17 17.5027 17 17.25C17 16.9973 17.7956 16.3597 18.1875 16.0469C18.9523 15.5399 19.5775 14.8444 20.0044 14.0256C20.2843 13.1183 20.3333 12.154 20.1469 11.2223C20.0443 10.6866 20.0363 10.1367 20.1231 9.59813C20.6574 9.49898 21.2054 9.50307 21.7381 9.61016C22.6577 9.79903 23.6095 9.74937 24.505 9.46578C25.3131 9.03327 25.9996 8.39987 26.5 7.625C26.8088 7.22797 27.4381 6.42188 27.6875 6.42188C27.9369 6.42188 28.5662 7.22797 28.875 7.625C29.3754 8.39987 30.0619 9.03327 30.87 9.46578C31.7655 9.74937 32.7173 9.79903 33.6369 9.61016C34.1657 9.50627 34.7084 9.49813 35.24 9.58609C35.3379 10.1274 35.3338 10.6826 35.2281 11.2223C35.0417 12.154 35.0907 13.1183 35.3706 14.0256C35.7975 14.8444 36.4227 15.5399 37.1875 16.0469C37.5794 16.3597 38.375 16.9973 38.375 17.25C38.375 17.5027 37.5794 18.1403 37.1875 18.4531C36.4227 18.9601 35.7975 19.6556 35.3706 20.4744C35.0907 21.3817 35.0417 22.346 35.2281 23.2777C35.3307 23.8134 35.3387 24.3633 35.2519 24.9019C34.7171 24.9949 34.1702 24.9908 33.6369 24.8898C32.7173 24.701 31.7655 24.7506 30.87 25.0342C30.0619 25.4667 29.3754 26.1001 28.875 26.875C28.5662 27.272 27.9369 28.0781 27.6875 28.0781C27.4381 28.0781 26.8088 27.272 26.5 26.875C25.9996 26.1001 25.3131 25.4667 24.505 25.0342C24.0556 24.8544 23.5749 24.7685 23.0919 24.7816ZM31.7725 27.26C32.3036 27.166 32.8475 27.1742 33.3756 27.2841C34.5869 27.4164 35.9762 27.5728 36.9262 26.6103C37.8762 25.6478 37.7219 24.2522 37.5913 23.013C37.4827 22.4819 37.4747 21.9349 37.5675 21.4008C37.675 21.2049 37.8204 21.033 37.995 20.8955L42.65 25.5997L36.7244 28.1744C36.5097 28.2665 36.3266 28.4205 36.1978 28.6174C36.069 28.8142 36.0002 29.0451 36 29.2812V32.4816L31.2856 27.6931C31.4176 27.5172 31.5832 27.3699 31.7725 27.26ZM69.25 40.9636C69.2471 44.602 68.3881 48.1873 66.7442 51.4221C65.1003 54.6569 62.7189 57.448 59.7975 59.5639L53.8125 63.8952L47.8275 59.5639C44.9061 57.448 42.5247 54.6569 40.8808 51.4221C39.2369 48.1873 38.3779 44.602 38.375 40.9636V30.0753L53.8125 23.3739L69.25 30.0753V40.9636Z" fill="#D4A94F"/>
</svg>
