<svg width="76" height="77" viewBox="0 0 76 77" fill="none" xmlns="http://www.w3.org/2000/svg">
<path d="M74.6184 63.1828C74.1143 62.3913 73.5129 61.6914 72.8305 61.1024L65.8948 54.9736C65.8407 54.8912 65.7781 54.813 65.7064 54.7403C65.5859 54.6183 65.4493 54.5231 65.3041 54.4519L61.1097 50.7455L41.6955 33.5872C42.4903 32.7455 42.9279 31.6448 42.9279 30.4743C42.9279 29.2685 42.4646 28.1353 41.6225 27.2822C41.2553 26.9106 40.8379 26.6184 40.3918 26.4044L42.1879 24.5847C42.6899 24.7199 43.2057 24.7891 43.722 24.7891C45.2422 24.7889 46.7625 24.2027 47.9197 23.0302C49.0416 21.8937 49.6594 20.3831 49.6594 18.7764C49.6594 17.1698 49.0416 15.6591 47.9198 14.5226L35.3252 1.76255C34.2034 0.626049 32.7122 0.00012207 31.126 0.00012207C29.5406 0.00012207 28.0498 0.626049 26.9282 1.76255C25.3779 3.33324 24.8676 5.56338 25.394 7.5699L7.4738 25.7257C6.97862 25.5923 6.46339 25.5219 5.93703 25.5219C4.35052 25.5219 2.86006 26.1474 1.73921 27.2828C-0.575829 29.6283 -0.575829 33.4448 1.73921 35.7905L14.3337 48.5508C15.4914 49.7236 17.0118 50.3099 18.5323 50.3099C20.0529 50.3099 21.5733 49.7236 22.731 48.5508C24.2813 46.98 24.7916 44.75 24.2652 42.7435L26.0576 40.9274C26.273 41.383 26.5653 41.8035 26.9284 42.1712C27.7694 43.0234 28.8876 43.4927 30.0775 43.4927C31.2316 43.4927 32.3175 43.0501 33.1495 42.2458L53.8278 66.3165C53.8848 66.4067 53.9513 66.4926 54.0291 66.5714C54.0557 66.5983 54.0839 66.6228 54.1119 66.6472L60.2737 73.82C60.4269 74.0031 60.5906 74.1833 60.7606 74.3555C62.4529 76.0695 64.6883 76.9997 67.0351 76.9997C67.4488 76.9997 67.8663 76.9708 68.2845 76.9121C71.0794 76.5202 73.4949 74.8262 74.9113 72.2639C76.4629 69.4556 76.3475 65.8903 74.6184 63.1828ZM29.0276 3.88938C29.5885 3.32105 30.334 3.00794 31.1262 3.00794C31.9194 3.00794 32.6653 3.32105 33.2261 3.88938L45.8208 16.6496C46.3817 17.2179 46.6906 17.9733 46.6906 18.7766C46.6906 19.5798 46.3817 20.3352 45.8206 20.9036C44.6636 22.0762 42.7805 22.0762 41.6234 20.9036L29.0283 8.14274C29.028 8.14244 29.0279 8.14229 29.0276 8.14199C27.8702 6.96954 27.8702 5.06183 29.0276 3.88938ZM20.6318 46.424C19.4743 47.5967 17.5904 47.5969 16.4329 46.424L3.83841 33.6638C2.68075 32.4909 2.68075 30.5827 3.83841 29.4097C4.39832 28.8422 5.14378 28.5297 5.93703 28.5297C6.73013 28.5297 7.47514 28.8421 8.0349 29.4091L20.6316 42.1715C21.7891 43.3438 21.7891 45.2517 20.6318 46.424ZM26.8813 35.8395L22.7308 40.0447L10.135 27.2831L26.9282 10.2687L39.5239 23.0302L35.3659 27.2431C35.3523 27.2561 35.3391 27.2687 35.3249 27.283L26.9325 35.7859C26.9151 35.8032 26.8984 35.8213 26.8813 35.8395ZM32.1814 38.9768C32.1785 38.9798 32.1756 38.9827 32.1727 38.9857L31.1274 40.0447C30.847 40.3287 30.4742 40.4851 30.0773 40.4851C29.6805 40.4851 29.3077 40.3286 29.0274 40.0446C28.7467 39.7603 28.5922 39.3822 28.5922 38.9799C28.5922 38.5862 28.7405 38.2158 29.0096 37.9364L37.441 29.394C38.0189 28.8246 38.9532 28.8317 39.5242 29.4097C39.8047 29.6939 39.9593 30.072 39.9593 30.4743C39.9593 30.8763 39.8052 31.2533 39.524 31.5374L38.4848 32.5903C38.4777 32.5974 38.4706 32.6046 38.4636 32.6118L32.1814 38.9768ZM35.2553 40.116L39.5935 35.7207L57.9615 51.9531L51.2589 58.744L35.2553 40.116ZM53.2125 61.0182L60.2038 53.9348L62.4463 55.9165L55.1661 63.2926L53.2125 61.0182ZM72.3212 70.7945C71.3632 72.5275 69.7436 73.6712 67.8776 73.9329C66.0159 74.194 64.1867 73.5727 62.8594 72.2285C62.7452 72.113 62.636 71.9926 62.5341 71.8704C62.5294 71.8647 62.5246 71.859 62.5197 71.8534L57.1196 65.5668L64.6886 57.8981L70.8858 63.3749C70.8904 63.3791 70.8952 63.3831 70.9001 63.3873C71.364 63.7869 71.7756 64.2668 72.1248 64.8151C73.2473 66.5725 73.326 68.9757 72.3212 70.7945Z" fill="#D4A94F"/>
</svg>
