<svg width="76" height="76" viewBox="0 0 76 76" fill="none" xmlns="http://www.w3.org/2000/svg">
<g clip-path="url(#clip0_71_106)">
<path d="M52.2504 68.875H49.2817V37.2697C50.0112 37.1016 50.6976 36.7829 51.2967 36.334C51.8959 35.8851 52.3947 35.316 52.7611 34.6631C56.4536 35.8148 59.7114 38.0563 62.1067 41.0934C62.8101 41.9724 63.7962 42.5808 64.8973 42.8153C65.1501 42.8604 65.4065 42.8822 65.6632 42.8806C66.3978 42.8825 67.1206 42.6963 67.7629 42.3398C68.4052 41.9833 68.9456 41.4684 69.3326 40.8441C69.4207 40.7119 69.4814 40.5634 69.5111 40.4073C69.5408 40.2513 69.5388 40.0909 69.5054 39.9356C69.472 39.7803 69.4077 39.6333 69.3165 39.5032C69.2252 39.3732 69.1088 39.2628 68.9741 39.1786C68.8395 39.0944 68.6893 39.038 68.5324 39.0129C68.3756 38.9878 68.2153 38.9944 68.061 39.0323C67.9068 39.0702 67.7617 39.1387 67.6344 39.2337C67.507 39.3287 67.4001 39.4482 67.3198 39.5853C67.1125 39.9172 66.8105 40.1794 66.4528 40.3381C66.0952 40.4969 65.6981 40.5449 65.3129 40.4759C64.7796 40.3415 64.3045 40.0372 63.9592 39.6091C61.2649 36.1904 57.5959 33.6705 53.4379 32.3831C53.4379 32.2763 53.4379 32.1694 53.4379 32.0625C53.4373 30.8521 53.0257 29.6779 52.2707 28.7319C51.5156 27.7859 50.4618 27.1243 49.2817 26.8553V24.9375C49.2817 24.6226 49.1566 24.3205 48.9339 24.0978C48.7112 23.8751 48.4091 23.75 48.0942 23.75C47.7792 23.75 47.4772 23.8751 47.2545 24.0978C47.0318 24.3205 46.9067 24.6226 46.9067 24.9375V26.8553C45.9263 27.0792 45.029 27.5752 44.318 28.2863C43.6069 28.9974 43.1109 29.8946 42.887 30.875C39.152 30.8914 35.4995 31.975 32.3598 33.9981C31.8894 34.2825 31.339 34.4055 30.7923 34.3484C30.4058 34.2832 30.048 34.1026 29.7661 33.8302C29.4842 33.5579 29.2914 33.2066 29.2129 32.8225C29.1878 32.6636 29.1306 32.5114 29.0448 32.3753C28.959 32.2391 28.8465 32.1218 28.714 32.0305C28.5815 31.9392 28.4319 31.8757 28.2741 31.844C28.1163 31.8123 27.9538 31.8129 27.7963 31.846C27.6388 31.879 27.4897 31.9437 27.358 32.0361C27.2262 32.1285 27.1147 32.2468 27.03 32.3836C26.9454 32.5205 26.8895 32.6731 26.8656 32.8323C26.8418 32.9914 26.8506 33.1537 26.8914 33.3094C27.0651 34.1577 27.4906 34.934 28.1124 35.5367C28.7342 36.1394 29.5233 36.5406 30.3767 36.6878C30.602 36.7282 30.8306 36.7481 31.0595 36.7472C31.9512 36.7346 32.8237 36.4867 33.5889 36.0288C36.3577 34.2302 39.5853 33.2656 42.887 33.25C43.1109 34.2304 43.6069 35.1276 44.318 35.8387C45.029 36.5498 45.9263 37.0458 46.9067 37.2697V68.875H43.9379C42.3632 68.875 40.853 69.5006 39.7395 70.6141C38.626 71.7276 38.0004 73.2378 38.0004 74.8125C38.0004 75.1274 38.1255 75.4295 38.3482 75.6522C38.5709 75.8749 38.873 76 39.1879 76H57.0004C57.3154 76 57.6174 75.8749 57.8401 75.6522C58.0628 75.4295 58.1879 75.1274 58.1879 74.8125C58.1879 73.2378 57.5624 71.7276 56.4489 70.6141C55.3354 69.5006 53.8252 68.875 52.2504 68.875ZM45.1254 32.0625C45.1254 31.4753 45.2995 30.9014 45.6258 30.4132C45.952 29.9249 46.4156 29.5444 46.9581 29.3197C47.5006 29.095 48.0975 29.0362 48.6734 29.1508C49.2492 29.2653 49.7782 29.5481 50.1934 29.9633C50.6086 30.3785 50.8913 30.9074 51.0059 31.4833C51.1204 32.0592 51.0616 32.6561 50.8369 33.1986C50.6123 33.7411 50.2317 34.2047 49.7435 34.5309C49.2553 34.8571 48.6813 35.0312 48.0942 35.0312C47.3068 35.0312 46.5517 34.7185 45.995 34.1617C45.4382 33.605 45.1254 32.8499 45.1254 32.0625ZM40.5773 73.625C40.823 72.9301 41.2781 72.3286 41.88 71.9032C42.4819 71.4778 43.2009 71.2496 43.9379 71.25H52.2504C52.9875 71.2496 53.7065 71.4778 54.3083 71.9032C54.9102 72.3286 55.3654 72.9301 55.6111 73.625H40.5773Z" fill="#D4A94F"/>
<path d="M20.9177 57.5522C22.6395 60.8237 26.4336 62.9375 30.578 62.9375C34.7224 62.9375 38.5164 60.8237 40.2383 57.5522C40.3155 57.4017 40.3597 57.2364 40.3679 57.0674C40.3761 56.8985 40.3481 56.7297 40.2858 56.5725C40.2756 56.5382 40.2638 56.5045 40.2502 56.4715L31.9377 39.8465C31.8394 39.6487 31.6878 39.4822 31.5001 39.3658C31.3123 39.2493 31.0958 39.1876 30.8749 39.1875C30.657 39.1848 30.4426 39.2421 30.2552 39.3531C30.0677 39.4641 29.9144 39.6245 29.812 39.8168L20.9058 56.4418C20.9048 56.4616 20.9048 56.4814 20.9058 56.5012C20.827 56.6656 20.7871 56.8458 20.7891 57.0281C20.7912 57.2103 20.8352 57.3896 20.9177 57.5522ZM30.578 60.5625C28.2729 60.5955 26.0424 59.7458 24.3436 58.1875H36.8124C35.1135 59.7458 32.8831 60.5955 30.578 60.5625ZM30.8392 42.9578L37.2636 55.8125H23.9517L30.8392 42.9578Z" fill="#D4A94F"/>
<path d="M75.8811 62.4388C75.882 62.419 75.882 62.3992 75.8811 62.3794L66.9748 45.7544C66.872 45.5612 66.7177 45.4002 66.5291 45.2891C66.3405 45.1781 66.1249 45.1213 65.9061 45.1251C65.6882 45.1285 65.4754 45.1917 65.2911 45.308C65.1068 45.4242 64.958 45.589 64.8611 45.7841L56.5486 62.4091C56.5459 62.4308 56.5459 62.4527 56.5486 62.4744C56.4735 62.6331 56.4346 62.8065 56.4346 62.9821C56.4346 63.1576 56.4735 63.331 56.5486 63.4897C58.2704 66.7613 62.0645 68.8751 66.2089 68.8751C70.3532 68.8751 74.1473 66.7613 75.8692 63.4897C75.9517 63.3272 75.9957 63.1479 75.9977 62.9657C75.9998 62.7834 75.9599 62.6031 75.8811 62.4388ZM65.9417 48.8954L72.8292 61.7501H59.5173L65.9417 48.8954ZM66.2029 66.5001C63.8978 66.5331 61.6674 65.6834 59.9686 64.1251H72.4373C70.7385 65.6834 68.508 66.5331 66.2029 66.5001Z" fill="#D4A94F"/>
<path d="M44.1271 63.0681C44.381 62.8828 44.5511 62.6044 44.6001 62.2938C44.6491 61.9833 44.5729 61.666 44.3883 61.4116C44.2025 61.1636 43.9271 60.9981 43.6209 60.9504C43.3147 60.9027 43.002 60.9766 42.7496 61.1562C40.7486 62.6228 38.718 63.9409 36.7468 65.2116C33.119 67.5866 30.0136 69.5756 28.3927 71.7012C26.7777 69.5756 23.6427 67.545 20.0446 65.2116C15.1343 62.035 9.57677 58.4369 6.16271 53.6216C1.22864 46.6984 2.41614 17.8481 2.71896 11.875C5.84802 11.7919 14.7008 11.3822 20.0921 9.29813C23.999 7.78406 26.938 4.81531 28.369 3.12906C29.8058 4.81531 32.7449 7.78406 36.6518 9.29813C42.043 11.3822 50.9018 11.7919 54.019 11.875C54.1436 14.2975 54.4168 20.4428 54.3633 27.3125C54.3633 27.6274 54.4884 27.9295 54.7111 28.1522C54.9338 28.3749 55.2359 28.5 55.5508 28.5C55.8658 28.5 56.1678 28.3749 56.3905 28.1522C56.6132 27.9295 56.7383 27.6274 56.7383 27.3125C56.8036 18.3706 56.3346 10.6875 56.3286 10.5925C56.3105 10.2901 56.1774 10.006 55.9566 9.7985C55.7359 9.59099 55.4441 9.4757 55.1411 9.47625C55.0224 9.47625 43.5749 9.39312 37.4949 7.04187C32.6558 5.18344 29.3783 0.552188 29.3427 0.504687C29.2335 0.349302 29.0886 0.222375 28.9202 0.134559C28.7518 0.0467434 28.5648 0.000599566 28.3749 0C28.185 0.000599566 27.998 0.0467434 27.8296 0.134559C27.6612 0.222375 27.5163 0.349302 27.4071 0.504687C27.3715 0.552188 24.0761 5.18344 19.243 7.03594C13.1511 9.405 1.70364 9.5 1.59083 9.5C1.28785 9.49945 0.996121 9.61474 0.775362 9.82225C0.554602 10.0298 0.42151 10.3138 0.403331 10.6162C0.320206 12.0709 -1.74011 46.6213 4.19739 54.9931C7.87864 60.1766 13.644 63.8994 18.7265 67.2006C23.0786 70.015 27.1815 72.675 27.1815 74.8125C27.1815 75.1274 27.3066 75.4295 27.5293 75.6522C27.752 75.8749 28.054 76 28.369 76C28.6839 76 28.9859 75.8749 29.2086 75.6522C29.4313 75.4295 29.5565 75.1274 29.5565 74.8125C29.5565 72.675 33.6652 70.015 38.0174 67.2006C40.0124 65.9062 42.0727 64.5703 44.1271 63.0681Z" fill="#D4A94F"/>
</g>
<defs>
<clipPath id="clip0_71_106">
<rect width="76" height="76" fill="white"/>
</clipPath>
</defs>
</svg>
