<svg width="76" height="77" viewBox="0 0 76 77" fill="none" xmlns="http://www.w3.org/2000/svg">
<path d="M74.8105 61.4525L59.8357 46.2808V33.4297C60.3256 33.7368 60.882 33.8932 61.4397 33.8932C62.221 33.8932 63.002 33.592 63.5968 32.9894L65.7135 30.8447C66.897 29.6943 66.8969 27.6242 65.7137 26.4739L59.8357 20.5185V3.18076C59.8357 1.42691 58.4273 0 56.6963 0H7.15094C5.41986 0 4.01148 1.42691 4.01148 3.18076V68.758H2.40673C1.15288 68.758 0.132812 69.7915 0.132812 71.0618V74.696C0.132812 75.9664 1.15288 76.9998 2.40673 76.9998H40.7943C42.1678 76.9998 43.2851 75.8679 43.2851 74.4763V71.0618C43.2851 69.7915 42.265 68.758 41.0112 68.758H33.9916V66.8285C33.9916 65.5581 32.9715 64.5246 31.7176 64.5246H11.7004C10.4465 64.5246 9.42634 65.5581 9.42634 66.8285V68.758H6.2379V3.18076C6.2379 2.67064 6.64744 2.25586 7.15079 2.25586H56.6961C57.1996 2.25586 57.609 2.67079 57.609 3.18076V18.2627L50.3369 10.8949C49.1473 9.68997 47.2123 9.69012 46.0229 10.8949L43.906 13.0396C42.6863 14.2707 42.7258 16.2966 43.981 17.4867L24.6303 37.0922C23.4558 35.8205 21.4562 35.7806 20.2412 37.0161L18.1242 39.1608C16.9347 40.366 16.9347 42.3267 18.1242 43.5318L33.5008 59.1107C34.0956 59.7132 34.8768 60.0144 35.6578 60.0144C36.439 60.0144 37.2201 59.7132 37.8149 59.1107V59.1106L39.9317 56.9659C41.121 55.7608 41.121 53.8 39.9317 52.5951L39.8568 52.5191L42.4213 49.9208L46.1395 46.1537L57.6093 57.7742V70.8114C57.6093 71.3215 57.1998 71.7363 56.6964 71.7363H47.468C46.8531 71.7363 46.3548 72.2412 46.3548 72.8643C46.3548 73.4873 46.8531 73.9922 47.468 73.9922H56.6964C58.4275 73.9922 59.8359 72.5653 59.8359 70.8114V60.0301L68.0253 68.3271C69.4343 69.7545 71.7266 69.7545 73.1357 68.3271L74.8107 66.6304C76.2194 65.2029 76.2194 62.88 74.8105 61.4525ZM40.9427 74.7441H2.40673C2.27373 74.7533 2.3806 71.0139 2.40673 71.0139H41.0112C41.0373 71.0139 41.0885 74.7441 40.9427 74.7441ZM11.6529 66.8285C11.6529 66.802 31.765 66.802 31.765 66.8285V68.758H11.6529V66.8285ZM52.9249 39.279L57.6093 34.533V44.0249L52.9249 39.279ZM42.204 22.4777L54.2816 34.7139L41.6342 47.528L29.5565 35.2916L42.204 22.4777ZM46.6651 20.2059C47.1001 20.6462 47.8049 20.6462 48.2396 20.2059C48.6744 19.7652 48.6744 19.0512 48.2396 18.6107L45.4806 15.8154C45.1593 15.4899 45.1593 14.9603 45.4806 14.6348L47.5975 12.4901C47.9187 12.1645 48.4414 12.1646 48.7626 12.4901L64.1392 28.0691C64.4589 28.3798 64.4589 28.9388 64.1392 29.2496L62.0223 31.3943C61.7008 31.7198 61.1782 31.7196 60.8573 31.3943L52.0193 22.4401C51.5844 21.9997 50.8796 21.9997 50.4448 22.4401C50.01 22.8807 50.01 23.5948 50.4448 24.0353L57.6332 31.3182L55.856 33.1189L43.7785 20.8826L45.5557 19.082L46.6651 20.2059ZM38.3573 55.3708L36.2404 57.5155C35.9189 57.841 35.3962 57.8408 35.0753 57.5155L19.6987 41.9366C19.3773 41.6111 19.3773 41.0815 19.6987 40.756L21.8155 38.6113C22.1367 38.2858 22.6594 38.2858 22.9806 38.6113L38.3573 54.1903C38.6785 54.5157 38.6785 55.0452 38.3573 55.3708ZM26.2047 38.6874L27.9819 36.8868L40.0595 49.1231L38.2823 50.9238L26.2047 38.6874ZM73.2362 65.0351L71.5612 66.7318C71.0208 67.28 70.1408 67.2801 69.5998 66.7318L47.714 44.5585L51.3504 40.8742L73.2361 63.0478C73.7768 63.5957 73.7768 64.4872 73.2362 65.0351Z" fill="#D4A94F"/>
<path d="M42.7636 8.54233C42.7636 6.50033 41.1238 4.83911 39.1083 4.83911H24.9785C22.963 4.83911 21.3232 6.50033 21.3232 8.54233C21.3232 10.5843 22.963 12.2457 24.9785 12.2457H39.1083C41.1238 12.2457 42.7636 10.5843 42.7636 8.54233ZM23.5497 8.54233C23.5497 7.74421 24.1905 7.09497 24.9784 7.09497H39.1081C39.896 7.09497 40.5368 7.74421 40.5368 8.54233C40.5368 9.3406 39.896 9.98984 39.1081 9.98984H24.9784C24.1906 9.98984 23.5497 9.34045 23.5497 8.54233Z" fill="#D4A94F"/>
<path d="M36.96 18.946C36.96 18.323 36.4617 17.8181 35.8468 17.8181H23.6943C23.0794 17.8181 22.5811 18.323 22.5811 18.946C22.5811 19.5691 23.0794 20.074 23.6943 20.074H35.8468C36.4617 20.074 36.96 19.5691 36.96 18.946Z" fill="#D4A94F"/>
<path d="M23.6943 23.8313C23.0794 23.8313 22.5811 24.3362 22.5811 24.9592C22.5811 25.5823 23.0794 26.0872 23.6943 26.0872H30.2024C30.8174 26.0872 31.3157 25.5823 31.3157 24.9592C31.3157 24.3362 30.8174 23.8313 30.2024 23.8313H23.6943Z" fill="#D4A94F"/>
<path d="M19.9561 60.5173H29.7706C30.3856 60.5173 30.8839 60.0125 30.8839 59.3894C30.8839 58.7663 30.3856 58.2615 29.7706 58.2615H19.9561C19.3411 58.2615 18.8428 58.7663 18.8428 59.3894C18.8428 60.0125 19.3412 60.5173 19.9561 60.5173Z" fill="#D4A94F"/>
<path d="M12.2676 58.2615C11.6526 58.2615 11.1543 58.7663 11.1543 59.3894C11.1543 60.0125 11.6526 60.5173 12.2676 60.5173H14.7165C15.3315 60.5173 15.8298 60.0125 15.8298 59.3894C15.8298 58.7663 15.3315 58.2615 14.7165 58.2615H12.2676Z" fill="#D4A94F"/>
<path d="M22.1155 53.3762C22.1155 52.7532 21.6172 52.2483 21.0022 52.2483H12.2676C11.6526 52.2483 11.1543 52.7532 11.1543 53.3762C11.1543 53.9993 11.6526 54.5042 12.2676 54.5042H21.0022C21.6172 54.5042 22.1155 53.9993 22.1155 53.3762Z" fill="#D4A94F"/>
<path d="M12.3907 26.3441C12.9986 26.747 13.4785 26.9443 14.0063 27.0354V27.1651C14.0063 27.7881 14.5046 28.293 15.1196 28.293C15.7346 28.293 16.2329 27.7881 16.2329 27.1651V26.9108C17.4489 26.4755 18.2273 25.3705 18.4088 24.2765C18.6631 22.7439 17.8442 21.3595 16.3709 20.8321C15.6452 20.5723 14.8455 20.2605 14.4141 19.9179C14.377 19.8884 14.3237 19.7474 14.362 19.5406C14.3804 19.4422 14.4644 19.1136 14.7794 19.0175C15.5128 18.794 15.9791 19.1625 16.03 19.2054L16.4471 19.4061C16.4471 19.4061 17.4961 19.8833 17.8601 18.9073C18.1512 18.1266 17.5206 17.53 17.5206 17.53C17.2653 17.2915 16.8161 17.0027 16.2328 16.8338V16.7198C16.2328 16.0968 15.7344 15.5919 15.1195 15.5919C14.5045 15.5919 14.0062 16.0968 14.0062 16.7198V16.9029C13.0645 17.2435 12.3677 18.0813 12.174 19.1228C11.9858 20.1343 12.3179 21.1189 13.04 21.693C13.723 22.2356 14.688 22.6222 15.6288 22.9591C16.2066 23.166 16.2653 23.5864 16.2129 23.9027C16.1376 24.3561 15.7612 24.8458 15.1119 24.8503C14.3516 24.8551 14.1686 24.827 13.6094 24.4564C13.0948 24.115 12.4048 24.2615 12.0683 24.7829C11.732 25.304 11.8761 26.0032 12.3907 26.3441Z" fill="#D4A94F"/>
</svg>
