<svg width="35" height="35" viewBox="0 0 35 35" fill="none" xmlns="http://www.w3.org/2000/svg">
<path d="M17.5002 21.3891C18.5316 21.3891 19.5208 20.9794 20.2501 20.2501C20.9794 19.5208 21.3891 18.5316 21.3891 17.5002C21.3891 16.4688 20.9794 15.4797 20.2501 14.7504C19.5208 14.021 18.5316 13.6113 17.5002 13.6113C16.4688 13.6113 15.4797 14.021 14.7504 14.7504C14.021 15.4797 13.6113 16.4688 13.6113 17.5002C13.6113 18.5316 14.021 19.5208 14.7504 20.2501C15.4797 20.9794 16.4688 21.3891 17.5002 21.3891Z" stroke="#D4A94F" stroke-width="1.5" stroke-linecap="round" stroke-linejoin="round"/>
<path d="M8.75 21.3889V13.6111C8.75 12.3219 9.26215 11.0854 10.1738 10.1738C11.0854 9.26215 12.3219 8.75 13.6111 8.75H21.3889C22.6781 8.75 23.9146 9.26215 24.8262 10.1738C25.7378 11.0854 26.25 12.3219 26.25 13.6111V21.3889C26.25 22.6781 25.7378 23.9146 24.8262 24.8262C23.9146 25.7378 22.6781 26.25 21.3889 26.25H13.6111C12.3219 26.25 11.0854 25.7378 10.1738 24.8262C9.26215 23.9146 8.75 22.6781 8.75 21.3889Z" stroke="#D4A94F" stroke-width="1.5"/>
<path d="M22.8477 12.1626L22.8574 12.1519" stroke="#D4A94F" stroke-width="1.5" stroke-linecap="round" stroke-linejoin="round"/>
<circle cx="17.5" cy="17.5" r="17" stroke="#D4A94F"/>
</svg>
