<svg width="1438" height="573" viewBox="0 0 1438 573" fill="none" xmlns="http://www.w3.org/2000/svg">
<g clip-path="url(#clip0_142_238)">
<g clip-path="url(#clip1_142_238)">
<path d="M-16.8735 125.546L23.6113 137.306C112.067 162.885 203.138 186.114 298.696 201.418C401.681 217.913 506.878 222.655 613.411 219.514C717.49 216.447 825.625 210.857 924.376 190.534C1018.01 171.266 1099.88 131.572 1199.13 121.556C1280.28 113.261 1361.25 130.481 1401.55 138.986L1442.04 147.597V415.348C1136.19 415.348 830.335 415.348 524.483 415.348C371.558 415.348 218.631 415.348 65.7064 415.348C58.2659 415.348 -16.8735 415.584 -16.8735 415.063C-16.8735 412.608 -16.8735 410.154 -16.8735 407.7C-16.8735 395.32 -16.8735 382.939 -16.8735 370.559C-16.8735 288.888 -16.8735 207.216 -16.8735 125.546Z" fill="#2954C8" fill-opacity="0.05"/>
<path d="M1199.18 122.054C1280.24 113.768 1361.14 130.969 1401.45 139.475V139.476L1441.54 148.001V414.848H65.7065C61.9774 414.848 41.3478 414.907 21.6265 414.901C11.7692 414.898 2.14561 414.878 -5.01318 414.827C-8.59282 414.802 -11.5541 414.768 -13.6196 414.725C-14.6531 414.703 -15.4584 414.679 -16.0034 414.653C-16.147 414.646 -16.2702 414.634 -16.3735 414.627V126.212L23.4722 137.786C111.937 163.368 203.031 186.603 298.618 201.912C401.64 218.413 506.869 223.155 613.426 220.014C717.507 216.947 825.679 211.356 924.477 191.024C971.324 181.383 1015.23 166.632 1059.79 153.054C1103.67 139.684 1148.19 127.445 1196.86 122.294L1199.18 122.054Z" stroke="#093D54" stroke-opacity="0.5"/>
<path d="M23.6875 243.851C92.0562 233.34 163.36 225.843 234.108 231.891C274.824 235.371 313.795 242.64 352.543 250.458C391.284 258.275 429.811 266.643 469.602 272.307C558.194 284.916 649.732 282.517 737.732 269.607C827.292 256.469 913.818 236.382 1007.67 238.042C1101.1 239.695 1193.24 255.285 1284.1 266.811C1336.56 273.466 1389.03 280.099 1441.54 286.637V414.847H-16.377V249.877L23.6855 243.851H23.6875Z" fill="#77A2EB" fill-opacity="0.05" stroke="#12506D"/>
<path d="M226.074 285.854C305.936 279.758 385.968 279.052 465.826 286.14L469.627 286.483C510.188 290.262 550.706 296.088 591.19 302.191C631.67 308.294 672.119 314.672 712.522 319.556V319.557C831.598 334.105 948.499 332.248 1068.64 324.258C1129.93 320.181 1191.01 316.934 1252.74 318.828C1302.69 320.362 1352.17 324.383 1401.51 329.009V329.008L1441.54 332.85V432.696H-16.3735V314.98L23.6821 309.266C63.9847 303.491 144.939 291.944 226.073 285.854H226.074Z" fill="#BCD4F7" fill-opacity="0.05" stroke="#1C5E7D"/>
</g>
</g>
<defs>
<clipPath id="clip0_142_238">
<rect width="1573" height="573" fill="white" transform="translate(-135)"/>
</clipPath>
<clipPath id="clip1_142_238">
<rect width="1458.91" height="525" fill="white" transform="translate(-16.8735 8)"/>
</clipPath>
</defs>
</svg>
