<svg width="35" height="35" viewBox="0 0 35 35" fill="none" xmlns="http://www.w3.org/2000/svg">
<path d="M24.3539 10.6071C23.4625 9.70688 22.4008 8.99313 21.2307 8.5074C20.0606 8.02168 18.8056 7.77369 17.5387 7.77788C12.2303 7.77788 7.90395 12.1043 7.90395 17.4126C7.90395 19.114 8.35117 20.7668 9.18728 22.2251L7.82617 27.2223L12.9303 25.8807C14.3401 26.6487 15.9248 27.0571 17.5387 27.0571C22.847 27.0571 27.1734 22.7307 27.1734 17.4223C27.1734 14.8459 26.172 12.4251 24.3539 10.6071ZM17.5387 25.4237C16.0998 25.4237 14.6901 25.0348 13.4553 24.3057L13.1637 24.1307L10.1303 24.9279L10.9373 21.9723L10.7428 21.6709C9.94323 20.3945 9.51874 18.9188 9.51784 17.4126C9.51784 12.9987 13.1151 9.4015 17.5289 9.4015C19.6678 9.4015 21.6803 10.2376 23.1873 11.7543C23.9336 12.4969 24.525 13.3804 24.9272 14.3533C25.3294 15.3263 25.5344 16.3695 25.5303 17.4223C25.5498 21.8362 21.9526 25.4237 17.5387 25.4237ZM21.9331 19.4348C21.6901 19.3182 20.5039 18.7348 20.2901 18.6473C20.0664 18.5696 19.9109 18.5307 19.7456 18.764C19.5803 19.0071 19.1234 19.5515 18.9873 19.7071C18.8512 19.8723 18.7053 19.8918 18.4623 19.7654C18.2192 19.6487 17.4414 19.3862 16.5276 18.5696C15.8081 17.9279 15.3317 17.1404 15.1859 16.8973C15.0498 16.6543 15.1664 16.5279 15.2928 16.4015C15.3998 16.2946 15.5359 16.1196 15.6526 15.9834C15.7692 15.8473 15.8178 15.7404 15.8956 15.5848C15.9734 15.4196 15.9345 15.2834 15.8762 15.1668C15.8178 15.0501 15.3317 13.864 15.1373 13.3779C14.9428 12.9112 14.7387 12.9696 14.5928 12.9598H14.1262C13.9609 12.9598 13.7081 13.0182 13.4845 13.2612C13.2706 13.5043 12.6484 14.0876 12.6484 15.2737C12.6484 16.4598 13.5137 17.6071 13.6303 17.7626C13.747 17.9279 15.3317 20.3584 17.7428 21.3987C18.3164 21.6515 18.7637 21.7973 19.1137 21.9043C19.6873 22.089 20.2123 22.0598 20.6303 22.0015C21.097 21.9334 22.0595 21.4182 22.2539 20.8543C22.4581 20.2904 22.4581 19.814 22.3901 19.7071C22.322 19.6001 22.1762 19.5515 21.9331 19.4348Z" fill="#D4A94F"/>
<circle cx="17.5" cy="17.5" r="17" stroke="#D4A94F"/>
</svg>
